<svg width="68" height="16" viewBox="0 0 68 16" fill="none" xmlns="http://www.w3.org/2000/svg">
<path d="M8.82824 8.95622C8.76761 8.8951 8.69548 8.84658 8.61601 8.81347C8.53653 8.78036 8.45129 8.76331 8.3652 8.76331C8.2791 8.76331 8.19386 8.78036 8.11439 8.81347C8.03491 8.84658 7.96278 8.8951 7.90215 8.95622C7.78068 9.07842 7.71251 9.24371 7.71251 9.41601C7.71251 9.5883 7.78068 9.7536 7.90215 9.87579L11.9326 13.9062C11.9932 13.9674 12.0653 14.0159 12.1448 14.049C12.2243 14.0821 12.3095 14.0991 12.3956 14.0991C12.4817 14.0991 12.567 14.0821 12.6464 14.049C12.7259 14.0159 12.798 13.9674 12.8587 13.9062C12.9801 13.784 13.0483 13.6187 13.0483 13.4464C13.0483 13.2741 12.9801 13.1089 12.8587 12.9867L8.82824 8.95622ZM9.63041 7.33231C10.1491 7.33185 10.6465 7.12542 11.013 6.7584L12.8587 4.91275C12.9801 4.79055 13.0483 4.62526 13.0483 4.45296C13.0483 4.28067 12.9801 4.11537 12.8587 3.99318C12.798 3.93205 12.7259 3.88354 12.6464 3.85043C12.567 3.81732 12.4817 3.80027 12.3956 3.80027C12.3095 3.80027 12.2243 3.81732 12.1448 3.85043C12.0653 3.88354 11.9932 3.93205 11.9326 3.99318L10.0869 5.83883C9.96474 5.9603 9.79945 6.02848 9.62715 6.02848C9.45486 6.02848 9.28956 5.9603 9.16737 5.83883L11.4761 3.53014C11.5975 3.40794 11.6657 3.24265 11.6657 3.07035C11.6657 2.89806 11.5975 2.73276 11.4761 2.61057C11.4154 2.54944 11.3433 2.50093 11.2638 2.46782C11.1844 2.43471 11.0991 2.41766 11.013 2.41766C10.9269 2.41766 10.8417 2.43471 10.7622 2.46782C10.6827 2.50093 10.6106 2.54944 10.55 2.61057L8.24781 4.91275C8.12634 4.79055 8.05816 4.62526 8.05816 4.45296C8.05816 4.28067 8.12634 4.11537 8.24781 3.99318L10.0869 2.14753C10.1552 2.08906 10.2107 2.01712 10.2498 1.9362C10.2889 1.85529 10.3109 1.76716 10.3144 1.67735C10.3179 1.58753 10.3027 1.49796 10.27 1.41427C10.2372 1.33058 10.1874 1.25457 10.1239 1.19102C10.0603 1.12746 9.98431 1.07773 9.90062 1.04494C9.81693 1.01215 9.72737 0.997017 9.63755 1.00049C9.54774 1.00396 9.45961 1.02595 9.37869 1.0651C9.29778 1.10424 9.22583 1.15969 9.16737 1.22796L7.32172 3.07362C6.95533 3.44046 6.74953 3.93774 6.74953 4.45622C6.74953 4.9747 6.95533 5.47198 7.32172 5.83883V5.83883L6.52607 6.64753L5.50867 5.64318C5.79742 5.12207 5.90662 4.52039 5.81939 3.93105C5.73217 3.3417 5.45338 2.79745 5.02607 2.38231C4.08694 1.44318 1.65433 0.393181 0.506501 1.56057C-0.641325 2.72796 0.395631 5.13449 1.30867 6.08014C1.81856 6.59185 2.5041 6.89032 3.22607 6.91492H3.31737C3.75832 6.90865 4.18997 6.78724 4.56954 6.56275L5.59346 7.56709L0.193457 12.9671C0.133078 13.0279 0.0852667 13.1 0.0527534 13.1793C0.0202401 13.2586 0.00366153 13.3435 0.00396433 13.4292C0.00426712 13.5149 0.0214453 13.5997 0.0545181 13.6787C0.0875908 13.7578 0.135911 13.8295 0.196718 13.8899C0.257526 13.9503 0.329631 13.9981 0.408916 14.0306C0.488201 14.0631 0.573114 14.0797 0.658807 14.0794C0.744499 14.0791 0.829293 14.0619 0.908346 14.0289C0.9874 13.9958 1.05916 13.9475 1.11954 13.8867L6.98911 8.01709L8.24128 6.76492C8.4241 6.94625 8.64091 7.08972 8.87929 7.18708C9.11767 7.28445 9.37292 7.3338 9.63041 7.33231V7.33231ZM4.19781 5.24535C4.07562 5.36681 3.92981 5.4619 3.76939 5.52472C3.60897 5.58754 3.43737 5.61676 3.2652 5.61057C2.88394 5.59415 2.52391 5.4305 2.26085 5.15405C1.5565 4.4497 1.06085 2.85188 1.43259 2.48014C1.55606 2.387 1.70862 2.34077 1.86302 2.3497C2.69539 2.41605 3.48324 2.75271 4.1065 3.3084C4.37277 3.55474 4.53156 3.89585 4.54864 4.25819C4.56572 4.62052 4.43972 4.97506 4.19781 5.24535V5.24535Z" fill="#F45959"/>
<path d="M4.97822 14.2746C5.04578 14.3349 5.07682 14.4222 5.06143 14.5077L4.82955 15.6898C4.80999 15.7899 4.85589 15.8913 4.94692 15.9492C5.03613 16.0093 5.15481 16.0165 5.2521 15.9685L6.40734 15.4135C6.44751 15.3938 6.49211 15.3832 6.53776 15.382H6.60845C6.63296 15.3854 6.65696 15.3926 6.67887 15.4036L7.83437 15.9613C7.8915 15.9877 7.95618 15.997 8.01957 15.9877C8.17398 15.9608 8.27701 15.8253 8.25171 15.6823L8.01957 14.5002C8.00418 14.414 8.03522 14.3263 8.10277 14.265L9.04465 13.4241C9.12342 13.3537 9.15081 13.248 9.11481 13.1526C9.07986 13.0575 8.99066 12.9881 8.88293 12.9724L7.58658 12.7992C7.48798 12.7898 7.40139 12.7346 7.35704 12.6529L6.78581 11.5741C6.77225 11.5501 6.75477 11.528 6.73365 11.5093L6.71017 11.4924C6.69791 11.4799 6.68383 11.4696 6.66818 11.4612L6.63975 11.4516L6.5954 11.4348H6.48559C6.38752 11.4442 6.30118 11.4982 6.25606 11.5789L5.67726 12.6529C5.63553 12.7315 5.55441 12.786 5.46077 12.7992L4.16442 12.9724C4.05487 12.9869 3.96331 13.0565 3.92706 13.1526C3.89289 13.249 3.92236 13.3547 4.0027 13.4241L4.97822 14.2746Z" fill="#FFA133"/>
<path d="M20.84 12.108C20.224 12.108 19.64 12.028 19.088 11.868C18.544 11.7 18.1 11.476 17.756 11.196C17.572 11.06 17.48 10.868 17.48 10.62C17.48 10.452 17.528 10.308 17.624 10.188C17.728 10.06 17.848 9.996 17.984 9.996C18.128 9.996 18.292 10.052 18.476 10.164C18.82 10.412 19.18 10.592 19.556 10.704C19.932 10.816 20.348 10.872 20.804 10.872C21.388 10.872 21.836 10.772 22.148 10.572C22.46 10.364 22.616 10.064 22.616 9.672C22.616 9.368 22.468 9.136 22.172 8.976C21.884 8.808 21.4 8.648 20.72 8.496C20.016 8.344 19.444 8.168 19.004 7.968C18.564 7.768 18.232 7.512 18.008 7.2C17.784 6.888 17.672 6.492 17.672 6.012C17.672 5.516 17.812 5.072 18.092 4.68C18.372 4.288 18.76 3.984 19.256 3.768C19.76 3.544 20.324 3.432 20.948 3.432C22.092 3.432 23.024 3.736 23.744 4.344C23.848 4.432 23.92 4.52 23.96 4.608C24.008 4.688 24.032 4.792 24.032 4.92C24.032 5.088 23.98 5.236 23.876 5.364C23.78 5.484 23.664 5.544 23.528 5.544C23.448 5.544 23.372 5.532 23.3 5.508C23.236 5.484 23.148 5.44 23.036 5.376C22.708 5.136 22.388 4.96 22.076 4.848C21.772 4.728 21.396 4.668 20.948 4.668C20.404 4.668 19.972 4.78 19.652 5.004C19.34 5.22 19.184 5.524 19.184 5.916C19.184 6.244 19.324 6.496 19.604 6.672C19.884 6.848 20.36 7.012 21.032 7.164C21.744 7.324 22.32 7.504 22.76 7.704C23.208 7.896 23.548 8.144 23.78 8.448C24.02 8.752 24.14 9.132 24.14 9.588C24.14 10.084 24 10.524 23.72 10.908C23.448 11.284 23.06 11.58 22.556 11.796C22.06 12.004 21.488 12.108 20.84 12.108ZM28.3983 10.956C28.7983 10.98 28.9983 11.16 28.9983 11.496C28.9983 11.688 28.9183 11.836 28.7583 11.94C28.6063 12.036 28.3863 12.076 28.0983 12.06L27.7743 12.036C26.4303 11.94 25.7583 11.22 25.7583 9.876V7.26H25.1583C24.9423 7.26 24.7743 7.212 24.6543 7.116C24.5423 7.02 24.4863 6.88 24.4863 6.696C24.4863 6.512 24.5423 6.372 24.6543 6.276C24.7743 6.18 24.9423 6.132 25.1583 6.132H25.7583V5.028C25.7583 4.812 25.8263 4.64 25.9623 4.512C26.0983 4.384 26.2823 4.32 26.5143 4.32C26.7383 4.32 26.9183 4.384 27.0543 4.512C27.1903 4.64 27.2583 4.812 27.2583 5.028V6.132H28.2783C28.4943 6.132 28.6583 6.18 28.7703 6.276C28.8903 6.372 28.9503 6.512 28.9503 6.696C28.9503 6.88 28.8903 7.02 28.7703 7.116C28.6583 7.212 28.4943 7.26 28.2783 7.26H27.2583V9.984C27.2583 10.576 27.5303 10.892 28.0743 10.932L28.3983 10.956ZM32.324 5.988C33.14 5.988 33.744 6.192 34.136 6.6C34.536 7 34.736 7.612 34.736 8.436V11.364C34.736 11.58 34.672 11.752 34.544 11.88C34.416 12 34.24 12.06 34.016 12.06C33.808 12.06 33.636 11.996 33.5 11.868C33.372 11.74 33.308 11.572 33.308 11.364V11.1C33.172 11.412 32.956 11.656 32.66 11.832C32.372 12.008 32.036 12.096 31.652 12.096C31.26 12.096 30.904 12.016 30.584 11.856C30.264 11.696 30.012 11.476 29.828 11.196C29.644 10.916 29.552 10.604 29.552 10.26C29.552 9.828 29.66 9.488 29.876 9.24C30.1 8.992 30.46 8.812 30.956 8.7C31.452 8.588 32.136 8.532 33.008 8.532H33.308V8.256C33.308 7.864 33.224 7.58 33.056 7.404C32.888 7.22 32.616 7.128 32.24 7.128C32.008 7.128 31.772 7.164 31.532 7.236C31.292 7.3 31.008 7.396 30.68 7.524C30.472 7.628 30.32 7.68 30.224 7.68C30.08 7.68 29.96 7.628 29.864 7.524C29.776 7.42 29.732 7.284 29.732 7.116C29.732 6.98 29.764 6.864 29.828 6.768C29.9 6.664 30.016 6.568 30.176 6.48C30.456 6.328 30.788 6.208 31.172 6.12C31.564 6.032 31.948 5.988 32.324 5.988ZM31.952 11.016C32.352 11.016 32.676 10.884 32.924 10.62C33.18 10.348 33.308 10 33.308 9.576V9.324H33.092C32.556 9.324 32.14 9.348 31.844 9.396C31.548 9.444 31.336 9.528 31.208 9.648C31.08 9.768 31.016 9.932 31.016 10.14C31.016 10.396 31.104 10.608 31.28 10.776C31.464 10.936 31.688 11.016 31.952 11.016ZM39.5365 6.012C39.7445 5.996 39.9085 6.04 40.0285 6.144C40.1485 6.248 40.2085 6.404 40.2085 6.612C40.2085 6.828 40.1565 6.988 40.0525 7.092C39.9485 7.196 39.7605 7.264 39.4885 7.296L39.1285 7.332C38.6565 7.38 38.3085 7.54 38.0845 7.812C37.8685 8.084 37.7605 8.424 37.7605 8.832V11.352C37.7605 11.584 37.6885 11.764 37.5445 11.892C37.4005 12.012 37.2205 12.072 37.0045 12.072C36.7885 12.072 36.6085 12.012 36.4645 11.892C36.3285 11.764 36.2605 11.584 36.2605 11.352V6.708C36.2605 6.484 36.3285 6.312 36.4645 6.192C36.6085 6.072 36.7845 6.012 36.9925 6.012C37.2005 6.012 37.3685 6.072 37.4965 6.192C37.6245 6.304 37.6885 6.468 37.6885 6.684V7.164C37.8405 6.812 38.0645 6.54 38.3605 6.348C38.6645 6.156 39.0005 6.048 39.3685 6.024L39.5365 6.012ZM41.7542 12.072C41.5222 12.072 41.3342 12 41.1902 11.856C41.0542 11.712 40.9862 11.524 40.9862 11.292V4.272C40.9862 4.04 41.0502 3.86 41.1782 3.732C41.3142 3.604 41.4982 3.54 41.7302 3.54H45.9422C46.4302 3.54 46.6742 3.748 46.6742 4.164C46.6742 4.572 46.4302 4.776 45.9422 4.776H42.5102V7.08H45.7022C46.1902 7.08 46.4342 7.288 46.4342 7.704C46.4342 8.112 46.1902 8.316 45.7022 8.316H42.5102V11.292C42.5102 11.524 42.4422 11.712 42.3062 11.856C42.1702 12 41.9862 12.072 41.7542 12.072ZM50.2099 12.096C49.6099 12.096 49.0819 11.972 48.6259 11.724C48.1779 11.476 47.8299 11.12 47.5819 10.656C47.3339 10.192 47.2099 9.652 47.2099 9.036C47.2099 8.42 47.3339 7.884 47.5819 7.428C47.8299 6.964 48.1779 6.608 48.6259 6.36C49.0819 6.112 49.6099 5.988 50.2099 5.988C50.8099 5.988 51.3339 6.112 51.7819 6.36C52.2379 6.608 52.5859 6.964 52.8259 7.428C53.0739 7.884 53.1979 8.42 53.1979 9.036C53.1979 9.652 53.0739 10.192 52.8259 10.656C52.5859 11.12 52.2379 11.476 51.7819 11.724C51.3339 11.972 50.8099 12.096 50.2099 12.096ZM50.1979 10.932C50.6859 10.932 51.0579 10.772 51.3139 10.452C51.5699 10.132 51.6979 9.66 51.6979 9.036C51.6979 8.42 51.5699 7.952 51.3139 7.632C51.0579 7.304 50.6899 7.14 50.2099 7.14C49.7299 7.14 49.3579 7.304 49.0939 7.632C48.8379 7.952 48.7099 8.42 48.7099 9.036C48.7099 9.66 48.8379 10.132 49.0939 10.452C49.3499 10.772 49.7179 10.932 50.1979 10.932ZM57.1123 12.096C56.5123 12.096 55.9843 11.972 55.5283 11.724C55.0803 11.476 54.7323 11.12 54.4843 10.656C54.2363 10.192 54.1123 9.652 54.1123 9.036C54.1123 8.42 54.2363 7.884 54.4843 7.428C54.7323 6.964 55.0803 6.608 55.5283 6.36C55.9843 6.112 56.5123 5.988 57.1123 5.988C57.7123 5.988 58.2363 6.112 58.6843 6.36C59.1403 6.608 59.4883 6.964 59.7283 7.428C59.9763 7.884 60.1003 8.42 60.1003 9.036C60.1003 9.652 59.9763 10.192 59.7283 10.656C59.4883 11.12 59.1403 11.476 58.6843 11.724C58.2363 11.972 57.7123 12.096 57.1123 12.096ZM57.1003 10.932C57.5883 10.932 57.9603 10.772 58.2163 10.452C58.4723 10.132 58.6003 9.66 58.6003 9.036C58.6003 8.42 58.4723 7.952 58.2163 7.632C57.9603 7.304 57.5923 7.14 57.1123 7.14C56.6323 7.14 56.2603 7.304 55.9963 7.632C55.7403 7.952 55.6123 8.42 55.6123 9.036C55.6123 9.66 55.7403 10.132 55.9963 10.452C56.2523 10.772 56.6203 10.932 57.1003 10.932ZM66.2346 3.48C66.4586 3.48 66.6426 3.544 66.7866 3.672C66.9306 3.8 67.0026 3.968 67.0026 4.176V11.352C67.0026 11.568 66.9346 11.74 66.7986 11.868C66.6626 11.996 66.4826 12.06 66.2586 12.06C66.0346 12.06 65.8546 11.996 65.7186 11.868C65.5826 11.74 65.5146 11.568 65.5146 11.352V11.052C65.3386 11.38 65.0826 11.636 64.7466 11.82C64.4186 12.004 64.0426 12.096 63.6186 12.096C63.1146 12.096 62.6626 11.968 62.2626 11.712C61.8706 11.456 61.5626 11.096 61.3386 10.632C61.1226 10.16 61.0146 9.62 61.0146 9.012C61.0146 8.404 61.1226 7.872 61.3386 7.416C61.5626 6.96 61.8706 6.608 62.2626 6.36C62.6546 6.112 63.1066 5.988 63.6186 5.988C64.0426 5.988 64.4186 6.076 64.7466 6.252C65.0746 6.428 65.3266 6.676 65.5026 6.996V4.152C65.5026 3.952 65.5666 3.792 65.6946 3.672C65.8306 3.544 66.0106 3.48 66.2346 3.48ZM64.0146 10.932C64.4946 10.932 64.8626 10.768 65.1186 10.44C65.3826 10.112 65.5146 9.644 65.5146 9.036C65.5146 8.428 65.3826 7.964 65.1186 7.644C64.8626 7.316 64.4986 7.152 64.0266 7.152C63.5466 7.152 63.1746 7.312 62.9106 7.632C62.6466 7.952 62.5146 8.412 62.5146 9.012C62.5146 9.62 62.6466 10.092 62.9106 10.428C63.1746 10.764 63.5426 10.932 64.0146 10.932Z" fill="#7A6D6D"/>
</svg>
